<svg id="visual" viewBox="0 0 900 250" width="900" height="250" xmlns="http://www.w3.org/2000/svg" xmlns:xlink="http://www.w3.org/1999/xlink" version="1.1"><path d="M0 34L82 44L164 24L245 36L327 46L409 24L491 44L573 21L655 64L736 61L818 59L900 29L900 0L818 0L736 0L655 0L573 0L491 0L409 0L327 0L245 0L164 0L82 0L0 0Z" fill="#ffffff"></path><path d="M0 51L82 86L164 39L245 69L327 64L409 59L491 74L573 64L655 94L736 104L818 81L900 66L900 27L818 57L736 59L655 62L573 19L491 42L409 22L327 44L245 34L164 22L82 42L0 32Z" fill="#c4d8c7"></path><path d="M0 86L82 119L164 81L245 109L327 96L409 84L491 126L573 109L655 139L736 141L818 106L900 99L900 64L818 79L736 102L655 92L573 62L491 72L409 57L327 62L245 67L164 37L82 84L0 49Z" fill="#8ab192"></path><path d="M0 179L82 189L164 161L245 151L327 156L409 146L491 184L573 164L655 184L736 221L818 201L900 199L900 97L818 104L736 139L655 137L573 107L491 124L409 82L327 94L245 107L164 79L82 117L0 84Z" fill="#508b60"></path><path d="M0 251L82 251L164 251L245 251L327 251L409 251L491 251L573 251L655 251L736 251L818 251L900 251L900 197L818 199L736 219L655 182L573 162L491 182L409 144L327 154L245 149L164 159L82 187L0 177Z" fill="#016630"></path></svg>